# xmcd
#
# Track frame offsets:
#	150
#	12983
#	27016
#	47311
#	59585
#	76304
#	99355
#	121574
#	138317
#	153462
#	167457
#	187174
#
# Disc length: 2674 seconds
#
# Revision: 1
# Processed by: cddbd v1.5.2PL0 Copyright (c) Steve Scherf et al.
# Submitted via: audiograbber 1.83.01
#
DISCID=890a700c
DTITLE=Gavan Arden - Aussie Country
DYEAR=2000
DGENRE=Country
TTITLE0=Cooper Creek Reflections
TTITLE1=The Mates I Left Behind
TTITLE2=Looking For Roses
TTITLE3=A Boy Who Wouldn't Give Up
TTITLE4=Down Along The River
TTITLE5=He Dreamed Of Being Macho
TTITLE6=Burnt Out And Dried Up Old Ringers
TTITLE7=Sometimes Creek
TTITLE8=Three Sweetest Words
TTITLE9=Glad To Be An Aussie
TTITLE10=Falling In Love Again
TTITLE11=Last Notch In Me Belt
EXTD=
EXTT0=
EXTT1=
EXTT2=
EXTT3=
EXTT4=
EXTT5=
EXTT6=
EXTT7=
EXTT8=
EXTT9=
EXTT10=
EXTT11=
PLAYORDER=
